<mxfile host="app.diagrams.net" modified="2023-07-05T10:58:55.678Z" agent="Mozilla/5.0 (X11; Ubuntu; Linux x86_64; rv:109.0) Gecko/20100101 Firefox/115.0" etag="xTJytCfXO5AqYrdUz0ba" version="21.5.2" type="device">
  <diagram name="Page-1" id="2YBvvXClWsGukQMizWep">
    <mxGraphModel dx="2733" dy="2663" grid="1" gridSize="10" guides="1" tooltips="1" connect="1" arrows="1" fold="1" page="1" pageScale="1" pageWidth="850" pageHeight="1100" math="0" shadow="0">
      <root>
        <mxCell id="0" />
        <mxCell id="1" parent="0" />
        <mxCell id="aM9ryv3xv72pqoxQDRHE-1" value="&lt;div style=&quot;font-size: 12px;&quot;&gt;RandomTrafficSimulator&lt;/div&gt;" style="shape=umlLifeline;perimeter=lifelinePerimeter;whiteSpace=wrap;html=1;container=0;dropTarget=0;collapsible=0;recursiveResize=0;outlineConnect=0;portConstraint=eastwest;newEdgeStyle={&quot;edgeStyle&quot;:&quot;elbowEdgeStyle&quot;,&quot;elbow&quot;:&quot;vertical&quot;,&quot;curved&quot;:0,&quot;rounded&quot;:0};fillColor=#dae8fc;strokeColor=#6c8ebf;rounded=0;fontSize=12;" parent="1" vertex="1">
          <mxGeometry x="290" y="-80" width="140" height="1270" as="geometry" />
        </mxCell>
        <mxCell id="aM9ryv3xv72pqoxQDRHE-2" value="" style="html=1;points=[];perimeter=orthogonalPerimeter;outlineConnect=0;targetShapes=umlLifeline;portConstraint=eastwest;newEdgeStyle={&quot;edgeStyle&quot;:&quot;elbowEdgeStyle&quot;,&quot;elbow&quot;:&quot;vertical&quot;,&quot;curved&quot;:0,&quot;rounded&quot;:0};fontSize=12;" parent="aM9ryv3xv72pqoxQDRHE-1" vertex="1">
          <mxGeometry x="65" y="60" width="10" height="1210" as="geometry" />
        </mxCell>
        <mxCell id="c-WefuL9a4vjOjl3ecWd-62" value="" style="html=1;points=[];perimeter=orthogonalPerimeter;outlineConnect=0;targetShapes=umlLifeline;portConstraint=eastwest;newEdgeStyle={&quot;edgeStyle&quot;:&quot;elbowEdgeStyle&quot;,&quot;elbow&quot;:&quot;vertical&quot;,&quot;curved&quot;:0,&quot;rounded&quot;:0};fontSize=12;" parent="aM9ryv3xv72pqoxQDRHE-1" vertex="1">
          <mxGeometry x="70" y="105" width="10" height="40" as="geometry" />
        </mxCell>
        <mxCell id="c-WefuL9a4vjOjl3ecWd-63" value="&lt;div style=&quot;font-size: 12px;&quot;&gt;Initialize&lt;/div&gt;&lt;div style=&quot;font-size: 12px;&quot;&gt;Traffic Simulators&lt;/div&gt;" style="html=1;align=left;spacingLeft=2;endArrow=block;rounded=0;edgeStyle=orthogonalEdgeStyle;curved=0;rounded=0;labelBackgroundColor=default;fontSize=12;" parent="aM9ryv3xv72pqoxQDRHE-1" target="c-WefuL9a4vjOjl3ecWd-62" edge="1">
          <mxGeometry relative="1" as="geometry">
            <mxPoint x="75" y="85" as="sourcePoint" />
            <Array as="points">
              <mxPoint x="105" y="115" />
            </Array>
          </mxGeometry>
        </mxCell>
        <mxCell id="VZETpKhERo8CzhVwRjxm-45" value="EgoVehicle" style="shape=umlLifeline;perimeter=lifelinePerimeter;whiteSpace=wrap;html=1;container=1;dropTarget=0;collapsible=0;recursiveResize=0;outlineConnect=0;portConstraint=eastwest;newEdgeStyle={&quot;edgeStyle&quot;:&quot;elbowEdgeStyle&quot;,&quot;elbow&quot;:&quot;vertical&quot;,&quot;curved&quot;:0,&quot;rounded&quot;:0};fillColor=#d5e8d4;strokeColor=#82b366;rounded=1;fontSize=12;" parent="1" vertex="1">
          <mxGeometry x="480" y="-80" width="100" height="1270" as="geometry" />
        </mxCell>
        <mxCell id="VZETpKhERo8CzhVwRjxm-46" value="" style="html=1;points=[];perimeter=orthogonalPerimeter;outlineConnect=0;targetShapes=umlLifeline;portConstraint=eastwest;newEdgeStyle={&quot;edgeStyle&quot;:&quot;elbowEdgeStyle&quot;,&quot;elbow&quot;:&quot;vertical&quot;,&quot;curved&quot;:0,&quot;rounded&quot;:0};fontSize=12;" parent="VZETpKhERo8CzhVwRjxm-45" vertex="1">
          <mxGeometry x="45" y="60" width="10" height="1210" as="geometry" />
        </mxCell>
        <mxCell id="VZETpKhERo8CzhVwRjxm-64" value="" style="html=1;points=[];perimeter=orthogonalPerimeter;outlineConnect=0;targetShapes=umlLifeline;portConstraint=eastwest;newEdgeStyle={&quot;edgeStyle&quot;:&quot;elbowEdgeStyle&quot;,&quot;elbow&quot;:&quot;vertical&quot;,&quot;curved&quot;:0,&quot;rounded&quot;:0};fontSize=12;" parent="VZETpKhERo8CzhVwRjxm-45" vertex="1">
          <mxGeometry x="40" y="390" width="10" height="30" as="geometry" />
        </mxCell>
        <mxCell id="VZETpKhERo8CzhVwRjxm-56" value="Spawn" style="html=1;verticalAlign=bottom;endArrow=block;edgeStyle=elbowEdgeStyle;elbow=horizontal;curved=0;rounded=0;fontSize=12;" parent="1" source="aM9ryv3xv72pqoxQDRHE-2" target="VZETpKhERo8CzhVwRjxm-55" edge="1">
          <mxGeometry relative="1" as="geometry">
            <mxPoint x="305" y="260" as="sourcePoint" />
            <Array as="points">
              <mxPoint x="370" y="260" />
            </Array>
          </mxGeometry>
        </mxCell>
        <mxCell id="VZETpKhERo8CzhVwRjxm-18" value="NPCVehicle" style="shape=umlLifeline;perimeter=lifelinePerimeter;whiteSpace=wrap;html=1;container=1;dropTarget=0;collapsible=0;recursiveResize=0;outlineConnect=0;portConstraint=eastwest;newEdgeStyle={&quot;edgeStyle&quot;:&quot;elbowEdgeStyle&quot;,&quot;elbow&quot;:&quot;vertical&quot;,&quot;curved&quot;:0,&quot;rounded&quot;:0};fillColor=#e1d5e7;strokeColor=#9673a6;rounded=1;fontSize=12;" parent="1" vertex="1">
          <mxGeometry x="400" y="190" width="100" height="830" as="geometry" />
        </mxCell>
        <mxCell id="VZETpKhERo8CzhVwRjxm-55" value="" style="html=1;points=[];perimeter=orthogonalPerimeter;outlineConnect=0;targetShapes=umlLifeline;portConstraint=eastwest;newEdgeStyle={&quot;edgeStyle&quot;:&quot;elbowEdgeStyle&quot;,&quot;elbow&quot;:&quot;vertical&quot;,&quot;curved&quot;:0,&quot;rounded&quot;:0};fontSize=12;" parent="VZETpKhERo8CzhVwRjxm-18" vertex="1">
          <mxGeometry x="45" y="70" width="10" height="740" as="geometry" />
        </mxCell>
        <mxCell id="VZETpKhERo8CzhVwRjxm-54" value="opt NPC spawn" style="shape=umlFrame;whiteSpace=wrap;html=1;pointerEvents=0;recursiveResize=0;container=0;collapsible=0;width=70;height=40;fillColor=#e1d5e7;strokeColor=#9673a6;fontSize=12;" parent="1" vertex="1">
          <mxGeometry x="270" y="170" width="240" height="110" as="geometry" />
        </mxCell>
        <mxCell id="VZETpKhERo8CzhVwRjxm-65" value="Get Transform" style="html=1;verticalAlign=bottom;endArrow=block;edgeStyle=elbowEdgeStyle;elbow=vertical;curved=0;rounded=0;fontSize=12;" parent="1" source="aM9ryv3xv72pqoxQDRHE-2" target="VZETpKhERo8CzhVwRjxm-64" edge="1">
          <mxGeometry relative="1" as="geometry">
            <mxPoint x="305" y="310" as="sourcePoint" />
            <mxPoint x="710" y="310" as="targetPoint" />
            <Array as="points">
              <mxPoint x="440" y="310" />
            </Array>
          </mxGeometry>
        </mxCell>
        <mxCell id="VZETpKhERo8CzhVwRjxm-66" value="return Transform" style="html=1;verticalAlign=bottom;endArrow=open;dashed=1;endSize=8;edgeStyle=elbowEdgeStyle;elbow=vertical;curved=0;rounded=0;fontSize=12;" parent="1" source="VZETpKhERo8CzhVwRjxm-64" target="aM9ryv3xv72pqoxQDRHE-2" edge="1">
          <mxGeometry relative="1" as="geometry">
            <mxPoint x="390" y="340" as="targetPoint" />
            <mxPoint x="710" y="340" as="sourcePoint" />
            <Array as="points">
              <mxPoint x="442" y="340" />
            </Array>
          </mxGeometry>
        </mxCell>
        <mxCell id="VZETpKhERo8CzhVwRjxm-93" value="opt NPC despawn" style="shape=umlFrame;whiteSpace=wrap;html=1;pointerEvents=0;recursiveResize=0;container=1;collapsible=0;width=70;height=40;fillColor=#e1d5e7;strokeColor=#9673a6;fontSize=12;" parent="1" vertex="1">
          <mxGeometry x="270" y="970" width="240" height="80" as="geometry" />
        </mxCell>
        <mxCell id="c-WefuL9a4vjOjl3ecWd-1" value="&lt;div style=&quot;font-size: 12px;&quot;&gt;Cognition Step&lt;/div&gt;" style="shape=umlLifeline;perimeter=lifelinePerimeter;whiteSpace=wrap;html=1;container=1;dropTarget=0;collapsible=0;recursiveResize=0;outlineConnect=0;portConstraint=eastwest;newEdgeStyle={&quot;edgeStyle&quot;:&quot;elbowEdgeStyle&quot;,&quot;elbow&quot;:&quot;vertical&quot;,&quot;curved&quot;:0,&quot;rounded&quot;:0};fillColor=#dae8fc;strokeColor=#6c8ebf;glass=1;fontSize=12;" parent="1" vertex="1">
          <mxGeometry x="600" y="-80" width="100" height="1180" as="geometry" />
        </mxCell>
        <mxCell id="c-WefuL9a4vjOjl3ecWd-8" value="" style="html=1;points=[];perimeter=orthogonalPerimeter;outlineConnect=0;targetShapes=umlLifeline;portConstraint=eastwest;newEdgeStyle={&quot;edgeStyle&quot;:&quot;elbowEdgeStyle&quot;,&quot;elbow&quot;:&quot;vertical&quot;,&quot;curved&quot;:0,&quot;rounded&quot;:0};fontSize=12;" parent="c-WefuL9a4vjOjl3ecWd-1" vertex="1">
          <mxGeometry x="45" y="160" width="10" height="1020" as="geometry" />
        </mxCell>
        <mxCell id="c-WefuL9a4vjOjl3ecWd-9" value="" style="html=1;points=[];perimeter=orthogonalPerimeter;outlineConnect=0;targetShapes=umlLifeline;portConstraint=eastwest;newEdgeStyle={&quot;edgeStyle&quot;:&quot;elbowEdgeStyle&quot;,&quot;elbow&quot;:&quot;vertical&quot;,&quot;curved&quot;:0,&quot;rounded&quot;:0};fontSize=12;" parent="c-WefuL9a4vjOjl3ecWd-1" vertex="1">
          <mxGeometry x="40" y="450" width="20" height="160" as="geometry" />
        </mxCell>
        <mxCell id="c-WefuL9a4vjOjl3ecWd-2" value="Decision Step" style="shape=umlLifeline;perimeter=lifelinePerimeter;whiteSpace=wrap;html=1;container=1;dropTarget=0;collapsible=0;recursiveResize=0;outlineConnect=0;portConstraint=eastwest;newEdgeStyle={&quot;edgeStyle&quot;:&quot;elbowEdgeStyle&quot;,&quot;elbow&quot;:&quot;vertical&quot;,&quot;curved&quot;:0,&quot;rounded&quot;:0};fillColor=#dae8fc;strokeColor=#6c8ebf;glass=1;fontSize=12;" parent="1" vertex="1">
          <mxGeometry x="720" y="-80" width="100" height="1200" as="geometry" />
        </mxCell>
        <mxCell id="c-WefuL9a4vjOjl3ecWd-20" value="" style="html=1;points=[];perimeter=orthogonalPerimeter;outlineConnect=0;targetShapes=umlLifeline;portConstraint=eastwest;newEdgeStyle={&quot;edgeStyle&quot;:&quot;elbowEdgeStyle&quot;,&quot;elbow&quot;:&quot;vertical&quot;,&quot;curved&quot;:0,&quot;rounded&quot;:0};fontSize=12;" parent="c-WefuL9a4vjOjl3ecWd-2" vertex="1">
          <mxGeometry x="45" y="180" width="10" height="1020" as="geometry" />
        </mxCell>
        <mxCell id="c-WefuL9a4vjOjl3ecWd-21" value="" style="html=1;points=[];perimeter=orthogonalPerimeter;outlineConnect=0;targetShapes=umlLifeline;portConstraint=eastwest;newEdgeStyle={&quot;edgeStyle&quot;:&quot;elbowEdgeStyle&quot;,&quot;elbow&quot;:&quot;vertical&quot;,&quot;curved&quot;:0,&quot;rounded&quot;:0};fontSize=12;" parent="c-WefuL9a4vjOjl3ecWd-2" vertex="1">
          <mxGeometry x="40" y="640" width="20" height="100" as="geometry" />
        </mxCell>
        <mxCell id="c-WefuL9a4vjOjl3ecWd-3" value="Control Step" style="shape=umlLifeline;perimeter=lifelinePerimeter;whiteSpace=wrap;html=1;container=1;dropTarget=0;collapsible=0;recursiveResize=0;outlineConnect=0;portConstraint=eastwest;newEdgeStyle={&quot;edgeStyle&quot;:&quot;elbowEdgeStyle&quot;,&quot;elbow&quot;:&quot;vertical&quot;,&quot;curved&quot;:0,&quot;rounded&quot;:0};fillColor=#dae8fc;strokeColor=#6c8ebf;glass=1;fontSize=12;" parent="1" vertex="1">
          <mxGeometry x="840" y="-80" width="100" height="1220" as="geometry" />
        </mxCell>
        <mxCell id="c-WefuL9a4vjOjl3ecWd-26" value="" style="html=1;points=[];perimeter=orthogonalPerimeter;outlineConnect=0;targetShapes=umlLifeline;portConstraint=eastwest;newEdgeStyle={&quot;edgeStyle&quot;:&quot;elbowEdgeStyle&quot;,&quot;elbow&quot;:&quot;vertical&quot;,&quot;curved&quot;:0,&quot;rounded&quot;:0};fontSize=12;" parent="c-WefuL9a4vjOjl3ecWd-3" vertex="1">
          <mxGeometry x="45" y="200" width="10" height="1020" as="geometry" />
        </mxCell>
        <mxCell id="c-WefuL9a4vjOjl3ecWd-28" value="" style="html=1;points=[];perimeter=orthogonalPerimeter;outlineConnect=0;targetShapes=umlLifeline;portConstraint=eastwest;newEdgeStyle={&quot;edgeStyle&quot;:&quot;elbowEdgeStyle&quot;,&quot;elbow&quot;:&quot;vertical&quot;,&quot;curved&quot;:0,&quot;rounded&quot;:0};fontSize=12;" parent="c-WefuL9a4vjOjl3ecWd-3" vertex="1">
          <mxGeometry x="40" y="770" width="20" height="100" as="geometry" />
        </mxCell>
        <mxCell id="c-WefuL9a4vjOjl3ecWd-4" value="Visualization Step" style="shape=umlLifeline;perimeter=lifelinePerimeter;whiteSpace=wrap;html=1;container=1;dropTarget=0;collapsible=0;recursiveResize=0;outlineConnect=0;portConstraint=eastwest;newEdgeStyle={&quot;edgeStyle&quot;:&quot;elbowEdgeStyle&quot;,&quot;elbow&quot;:&quot;vertical&quot;,&quot;curved&quot;:0,&quot;rounded&quot;:0};fillColor=#dae8fc;strokeColor=#6c8ebf;glass=1;shadow=0;fontSize=12;" parent="1" vertex="1">
          <mxGeometry x="960" y="-80" width="100" height="1240" as="geometry" />
        </mxCell>
        <mxCell id="c-WefuL9a4vjOjl3ecWd-27" value="" style="html=1;points=[];perimeter=orthogonalPerimeter;outlineConnect=0;targetShapes=umlLifeline;portConstraint=eastwest;newEdgeStyle={&quot;edgeStyle&quot;:&quot;elbowEdgeStyle&quot;,&quot;elbow&quot;:&quot;vertical&quot;,&quot;curved&quot;:0,&quot;rounded&quot;:0};fontSize=12;" parent="c-WefuL9a4vjOjl3ecWd-4" vertex="1">
          <mxGeometry x="45" y="220" width="10" height="1020" as="geometry" />
        </mxCell>
        <mxCell id="c-WefuL9a4vjOjl3ecWd-33" value="" style="html=1;points=[];perimeter=orthogonalPerimeter;outlineConnect=0;targetShapes=umlLifeline;portConstraint=eastwest;newEdgeStyle={&quot;edgeStyle&quot;:&quot;elbowEdgeStyle&quot;,&quot;elbow&quot;:&quot;vertical&quot;,&quot;curved&quot;:0,&quot;rounded&quot;:0};fontSize=12;" parent="c-WefuL9a4vjOjl3ecWd-4" vertex="1">
          <mxGeometry x="40" y="900" width="10" height="60" as="geometry" />
        </mxCell>
        <mxCell id="c-WefuL9a4vjOjl3ecWd-10" value="Execute" style="html=1;verticalAlign=bottom;endArrow=block;edgeStyle=elbowEdgeStyle;elbow=vertical;curved=0;rounded=0;fontSize=12;" parent="1" source="aM9ryv3xv72pqoxQDRHE-2" target="c-WefuL9a4vjOjl3ecWd-9" edge="1">
          <mxGeometry x="-0.0909" relative="1" as="geometry">
            <mxPoint x="305" y="370" as="sourcePoint" />
            <Array as="points">
              <mxPoint x="578" y="370" />
            </Array>
            <mxPoint as="offset" />
          </mxGeometry>
        </mxCell>
        <mxCell id="c-WefuL9a4vjOjl3ecWd-11" value="return" style="html=1;verticalAlign=bottom;endArrow=open;dashed=1;endSize=8;edgeStyle=elbowEdgeStyle;elbow=vertical;curved=0;rounded=0;fontSize=12;" parent="1" source="c-WefuL9a4vjOjl3ecWd-9" target="aM9ryv3xv72pqoxQDRHE-2" edge="1">
          <mxGeometry x="0.0909" relative="1" as="geometry">
            <mxPoint x="305" y="529.9999999999995" as="targetPoint" />
            <Array as="points">
              <mxPoint x="590" y="530" />
            </Array>
            <mxPoint as="offset" />
          </mxGeometry>
        </mxCell>
        <mxCell id="c-WefuL9a4vjOjl3ecWd-12" value="" style="html=1;points=[];perimeter=orthogonalPerimeter;outlineConnect=0;targetShapes=umlLifeline;portConstraint=eastwest;newEdgeStyle={&quot;edgeStyle&quot;:&quot;elbowEdgeStyle&quot;,&quot;elbow&quot;:&quot;vertical&quot;,&quot;curved&quot;:0,&quot;rounded&quot;:0};fontSize=12;" parent="1" vertex="1">
          <mxGeometry x="530" y="400" width="10" height="30" as="geometry" />
        </mxCell>
        <mxCell id="c-WefuL9a4vjOjl3ecWd-13" value="Get Transform" style="html=1;verticalAlign=bottom;endArrow=block;edgeStyle=elbowEdgeStyle;elbow=vertical;curved=0;rounded=0;fontSize=12;" parent="1" source="c-WefuL9a4vjOjl3ecWd-9" target="c-WefuL9a4vjOjl3ecWd-12" edge="1">
          <mxGeometry relative="1" as="geometry">
            <mxPoint x="610" y="400" as="sourcePoint" />
            <Array as="points">
              <mxPoint x="590" y="400" />
            </Array>
          </mxGeometry>
        </mxCell>
        <mxCell id="c-WefuL9a4vjOjl3ecWd-14" value="return Transform" style="html=1;verticalAlign=bottom;endArrow=open;dashed=1;endSize=8;edgeStyle=elbowEdgeStyle;elbow=vertical;curved=0;rounded=0;fontSize=12;" parent="1" source="c-WefuL9a4vjOjl3ecWd-12" target="c-WefuL9a4vjOjl3ecWd-9" edge="1">
          <mxGeometry relative="1" as="geometry">
            <mxPoint x="610" y="475" as="targetPoint" />
            <Array as="points">
              <mxPoint x="590" y="430" />
            </Array>
          </mxGeometry>
        </mxCell>
        <mxCell id="c-WefuL9a4vjOjl3ecWd-22" value="Execute" style="html=1;verticalAlign=bottom;endArrow=block;edgeStyle=elbowEdgeStyle;elbow=vertical;curved=0;rounded=0;fontSize=12;" parent="1" source="aM9ryv3xv72pqoxQDRHE-2" target="c-WefuL9a4vjOjl3ecWd-21" edge="1">
          <mxGeometry x="0.038" relative="1" as="geometry">
            <mxPoint x="305" y="560" as="sourcePoint" />
            <Array as="points">
              <mxPoint x="670" y="560" />
            </Array>
            <mxPoint as="offset" />
          </mxGeometry>
        </mxCell>
        <mxCell id="c-WefuL9a4vjOjl3ecWd-23" value="return" style="html=1;verticalAlign=bottom;endArrow=open;dashed=1;endSize=8;edgeStyle=elbowEdgeStyle;elbow=vertical;curved=0;rounded=0;fontSize=12;" parent="1" source="c-WefuL9a4vjOjl3ecWd-21" target="aM9ryv3xv72pqoxQDRHE-2" edge="1">
          <mxGeometry x="-0.038" relative="1" as="geometry">
            <mxPoint x="305" y="660" as="targetPoint" />
            <Array as="points">
              <mxPoint x="680" y="660" />
            </Array>
            <mxPoint as="offset" />
          </mxGeometry>
        </mxCell>
        <mxCell id="c-WefuL9a4vjOjl3ecWd-29" value="Execute" style="html=1;verticalAlign=bottom;endArrow=block;edgeStyle=elbowEdgeStyle;elbow=vertical;curved=0;rounded=0;fontSize=12;" parent="1" source="aM9ryv3xv72pqoxQDRHE-2" target="c-WefuL9a4vjOjl3ecWd-28" edge="1">
          <mxGeometry x="-0.0485" relative="1" as="geometry">
            <mxPoint x="305" y="670" as="sourcePoint" />
            <Array as="points">
              <mxPoint x="640" y="690" />
            </Array>
            <mxPoint as="offset" />
          </mxGeometry>
        </mxCell>
        <mxCell id="c-WefuL9a4vjOjl3ecWd-30" value="return" style="html=1;verticalAlign=bottom;endArrow=open;dashed=1;endSize=8;edgeStyle=elbowEdgeStyle;elbow=vertical;curved=0;rounded=0;fontSize=12;" parent="1" source="c-WefuL9a4vjOjl3ecWd-28" target="aM9ryv3xv72pqoxQDRHE-2" edge="1">
          <mxGeometry x="0.0485" relative="1" as="geometry">
            <mxPoint x="305" y="770" as="targetPoint" />
            <Array as="points">
              <mxPoint x="740" y="790" />
            </Array>
            <mxPoint as="offset" />
          </mxGeometry>
        </mxCell>
        <mxCell id="c-WefuL9a4vjOjl3ecWd-34" value="&lt;div style=&quot;font-size: 12px;&quot;&gt;Execute&lt;/div&gt;" style="html=1;verticalAlign=bottom;endArrow=block;edgeStyle=elbowEdgeStyle;elbow=vertical;curved=0;rounded=0;fontSize=12;" parent="1" source="aM9ryv3xv72pqoxQDRHE-2" target="c-WefuL9a4vjOjl3ecWd-33" edge="1">
          <mxGeometry x="0.0551" relative="1" as="geometry">
            <mxPoint x="305" y="800" as="sourcePoint" />
            <Array as="points">
              <mxPoint x="710" y="820" />
            </Array>
            <mxPoint as="offset" />
          </mxGeometry>
        </mxCell>
        <mxCell id="c-WefuL9a4vjOjl3ecWd-35" value="return" style="html=1;verticalAlign=bottom;endArrow=open;dashed=1;endSize=8;edgeStyle=elbowEdgeStyle;elbow=vertical;curved=0;rounded=0;fontSize=12;" parent="1" source="c-WefuL9a4vjOjl3ecWd-33" target="aM9ryv3xv72pqoxQDRHE-2" edge="1">
          <mxGeometry x="-0.0551" relative="1" as="geometry">
            <mxPoint x="305" y="879.9999999999995" as="targetPoint" />
            <mxPoint x="1100" y="880" as="sourcePoint" />
            <Array as="points">
              <mxPoint x="930" y="880" />
            </Array>
            <mxPoint as="offset" />
          </mxGeometry>
        </mxCell>
        <mxCell id="c-WefuL9a4vjOjl3ecWd-38" value="&lt;div style=&quot;font-size: 12px;&quot;&gt;Set Position, Rotation and Turn Signal Status&lt;br style=&quot;font-size: 12px;&quot;&gt;&lt;/div&gt;" style="html=1;verticalAlign=bottom;endArrow=block;edgeStyle=elbowEdgeStyle;elbow=vertical;curved=0;rounded=0;fontSize=12;" parent="1" source="c-WefuL9a4vjOjl3ecWd-33" target="VZETpKhERo8CzhVwRjxm-55" edge="1">
          <mxGeometry width="80" relative="1" as="geometry">
            <mxPoint x="770" y="610" as="sourcePoint" />
            <mxPoint x="850" y="610" as="targetPoint" />
            <Array as="points">
              <mxPoint x="860" y="850" />
            </Array>
          </mxGeometry>
        </mxCell>
        <mxCell id="c-WefuL9a4vjOjl3ecWd-41" value="Initialize" style="html=1;verticalAlign=bottom;endArrow=block;edgeStyle=elbowEdgeStyle;elbow=vertical;curved=0;rounded=0;fontSize=12;" parent="1" source="aM9ryv3xv72pqoxQDRHE-2" target="c-WefuL9a4vjOjl3ecWd-8" edge="1">
          <mxGeometry x="-0.4643" width="80" relative="1" as="geometry">
            <mxPoint x="770" y="440" as="sourcePoint" />
            <mxPoint x="850" y="440" as="targetPoint" />
            <Array as="points">
              <mxPoint x="490" y="80" />
            </Array>
            <mxPoint as="offset" />
          </mxGeometry>
        </mxCell>
        <mxCell id="c-WefuL9a4vjOjl3ecWd-42" value="Initialize" style="html=1;verticalAlign=bottom;endArrow=block;edgeStyle=elbowEdgeStyle;elbow=vertical;curved=0;rounded=0;fontSize=12;" parent="1" source="aM9ryv3xv72pqoxQDRHE-2" target="c-WefuL9a4vjOjl3ecWd-20" edge="1">
          <mxGeometry x="-0.625" width="80" relative="1" as="geometry">
            <mxPoint x="770" y="440" as="sourcePoint" />
            <mxPoint x="850" y="440" as="targetPoint" />
            <Array as="points">
              <mxPoint x="560" y="100" />
            </Array>
            <mxPoint as="offset" />
          </mxGeometry>
        </mxCell>
        <mxCell id="c-WefuL9a4vjOjl3ecWd-43" value="Initialize" style="html=1;verticalAlign=bottom;endArrow=block;edgeStyle=elbowEdgeStyle;elbow=vertical;curved=0;rounded=0;fontSize=12;" parent="1" source="aM9ryv3xv72pqoxQDRHE-2" target="c-WefuL9a4vjOjl3ecWd-26" edge="1">
          <mxGeometry x="-0.7115" width="80" relative="1" as="geometry">
            <mxPoint x="770" y="440" as="sourcePoint" />
            <mxPoint x="850" y="440" as="targetPoint" />
            <Array as="points">
              <mxPoint x="610" y="120" />
            </Array>
            <mxPoint as="offset" />
          </mxGeometry>
        </mxCell>
        <mxCell id="c-WefuL9a4vjOjl3ecWd-44" value="Initialize" style="html=1;verticalAlign=bottom;endArrow=block;edgeStyle=elbowEdgeStyle;elbow=vertical;curved=0;rounded=0;fontSize=12;" parent="1" source="aM9ryv3xv72pqoxQDRHE-2" target="c-WefuL9a4vjOjl3ecWd-27" edge="1">
          <mxGeometry x="-0.7656" width="80" relative="1" as="geometry">
            <mxPoint x="770" y="440" as="sourcePoint" />
            <mxPoint x="850" y="440" as="targetPoint" />
            <Array as="points">
              <mxPoint x="720" y="140" />
            </Array>
            <mxPoint as="offset" />
          </mxGeometry>
        </mxCell>
        <mxCell id="VZETpKhERo8CzhVwRjxm-51" value="update loop" style="shape=umlFrame;whiteSpace=wrap;html=1;pointerEvents=0;recursiveResize=0;container=0;collapsible=0;width=50;height=40;fontSize=12;" parent="1" vertex="1">
          <mxGeometry x="210" y="160" width="830" height="910" as="geometry" />
        </mxCell>
        <mxCell id="c-WefuL9a4vjOjl3ecWd-46" value="Terminate" style="html=1;verticalAlign=bottom;endArrow=block;edgeStyle=elbowEdgeStyle;elbow=vertical;curved=0;rounded=0;fontSize=12;" parent="1" source="aM9ryv3xv72pqoxQDRHE-2" target="c-WefuL9a4vjOjl3ecWd-8" edge="1">
          <mxGeometry x="-0.4643" width="80" relative="1" as="geometry">
            <mxPoint x="490" y="1150" as="sourcePoint" />
            <mxPoint x="570" y="1150" as="targetPoint" />
            <Array as="points">
              <mxPoint x="500" y="1100" />
            </Array>
            <mxPoint as="offset" />
          </mxGeometry>
        </mxCell>
        <mxCell id="c-WefuL9a4vjOjl3ecWd-47" value="Terminate" style="html=1;verticalAlign=bottom;endArrow=block;edgeStyle=elbowEdgeStyle;elbow=vertical;curved=0;rounded=0;fontSize=12;" parent="1" source="aM9ryv3xv72pqoxQDRHE-2" target="c-WefuL9a4vjOjl3ecWd-20" edge="1">
          <mxGeometry x="-0.625" width="80" relative="1" as="geometry">
            <mxPoint x="490" y="830" as="sourcePoint" />
            <mxPoint x="570" y="830" as="targetPoint" />
            <Array as="points">
              <mxPoint x="560" y="1120" />
            </Array>
            <mxPoint as="offset" />
          </mxGeometry>
        </mxCell>
        <mxCell id="c-WefuL9a4vjOjl3ecWd-48" value="Terminate" style="html=1;verticalAlign=bottom;endArrow=block;edgeStyle=elbowEdgeStyle;elbow=vertical;curved=0;rounded=0;fontSize=12;" parent="1" source="aM9ryv3xv72pqoxQDRHE-2" target="c-WefuL9a4vjOjl3ecWd-26" edge="1">
          <mxGeometry x="-0.7115" width="80" relative="1" as="geometry">
            <mxPoint x="490" y="830" as="sourcePoint" />
            <mxPoint x="570" y="830" as="targetPoint" />
            <Array as="points">
              <mxPoint x="630" y="1140" />
            </Array>
            <mxPoint as="offset" />
          </mxGeometry>
        </mxCell>
        <mxCell id="c-WefuL9a4vjOjl3ecWd-49" value="Terminate" style="html=1;verticalAlign=bottom;endArrow=block;edgeStyle=elbowEdgeStyle;elbow=vertical;curved=0;rounded=0;fontSize=12;" parent="1" source="aM9ryv3xv72pqoxQDRHE-2" target="c-WefuL9a4vjOjl3ecWd-27" edge="1">
          <mxGeometry x="-0.7656" width="80" relative="1" as="geometry">
            <mxPoint x="490" y="830" as="sourcePoint" />
            <mxPoint x="570" y="830" as="targetPoint" />
            <Array as="points">
              <mxPoint x="730" y="1160" />
            </Array>
            <mxPoint as="offset" />
          </mxGeometry>
        </mxCell>
        <mxCell id="c-WefuL9a4vjOjl3ecWd-52" value="" style="html=1;points=[];perimeter=orthogonalPerimeter;outlineConnect=0;targetShapes=umlLifeline;portConstraint=eastwest;newEdgeStyle={&quot;edgeStyle&quot;:&quot;elbowEdgeStyle&quot;,&quot;elbow&quot;:&quot;vertical&quot;,&quot;curved&quot;:0,&quot;rounded&quot;:0};fontSize=12;" parent="1" vertex="1">
          <mxGeometry x="655" y="470" width="10" height="40" as="geometry" />
        </mxCell>
        <mxCell id="c-WefuL9a4vjOjl3ecWd-53" value="&lt;div style=&quot;font-size: 12px;&quot;&gt;Check for:&lt;/div&gt;&lt;div style=&quot;font-size: 12px;&quot;&gt;- ground&lt;/div&gt;&lt;div style=&quot;font-size: 12px;&quot;&gt;- lanes to follow&lt;/div&gt;&lt;div style=&quot;font-size: 12px;&quot;&gt;- traffic lights&lt;/div&gt;&lt;div style=&quot;font-size: 12px;&quot;&gt;- right of ways&lt;/div&gt;&lt;div style=&quot;font-size: 12px;&quot;&gt;- sharp curves&lt;/div&gt;&lt;div style=&quot;font-size: 12px;&quot;&gt;- obstacles in front&lt;/div&gt;" style="html=1;align=left;spacingLeft=2;endArrow=block;rounded=0;edgeStyle=orthogonalEdgeStyle;curved=0;rounded=0;labelBackgroundColor=default;labelBorderColor=none;fontSize=12;" parent="1" target="c-WefuL9a4vjOjl3ecWd-52" edge="1">
          <mxGeometry relative="1" as="geometry">
            <mxPoint x="660" y="450" as="sourcePoint" />
            <Array as="points">
              <mxPoint x="690" y="480" />
            </Array>
          </mxGeometry>
        </mxCell>
        <mxCell id="c-WefuL9a4vjOjl3ecWd-56" value="" style="html=1;points=[];perimeter=orthogonalPerimeter;outlineConnect=0;targetShapes=umlLifeline;portConstraint=eastwest;newEdgeStyle={&quot;edgeStyle&quot;:&quot;elbowEdgeStyle&quot;,&quot;elbow&quot;:&quot;vertical&quot;,&quot;curved&quot;:0,&quot;rounded&quot;:0};fontSize=12;" parent="1" vertex="1">
          <mxGeometry x="775" y="605" width="10" height="40" as="geometry" />
        </mxCell>
        <mxCell id="c-WefuL9a4vjOjl3ecWd-57" value="&lt;div style=&quot;font-size: 12px;&quot;&gt;Decide about:&lt;/div&gt;&lt;div style=&quot;font-size: 12px;&quot;&gt;- next target&lt;/div&gt;&lt;div style=&quot;font-size: 12px;&quot;&gt;- current speed mode&lt;br style=&quot;font-size: 12px;&quot;&gt;&lt;/div&gt;" style="html=1;align=left;spacingLeft=2;endArrow=block;rounded=0;edgeStyle=orthogonalEdgeStyle;curved=0;rounded=0;labelBorderColor=none;fontSize=12;" parent="1" target="c-WefuL9a4vjOjl3ecWd-56" edge="1">
          <mxGeometry x="-0.0028" relative="1" as="geometry">
            <mxPoint x="780" y="585" as="sourcePoint" />
            <Array as="points">
              <mxPoint x="810" y="615" />
            </Array>
            <mxPoint as="offset" />
          </mxGeometry>
        </mxCell>
        <mxCell id="c-WefuL9a4vjOjl3ecWd-58" value="" style="html=1;points=[];perimeter=orthogonalPerimeter;outlineConnect=0;targetShapes=umlLifeline;portConstraint=eastwest;newEdgeStyle={&quot;edgeStyle&quot;:&quot;elbowEdgeStyle&quot;,&quot;elbow&quot;:&quot;vertical&quot;,&quot;curved&quot;:0,&quot;rounded&quot;:0};fontSize=12;" parent="1" vertex="1">
          <mxGeometry x="895" y="730" width="10" height="40" as="geometry" />
        </mxCell>
        <mxCell id="c-WefuL9a4vjOjl3ecWd-59" value="&lt;div style=&quot;font-size: 12px;&quot;&gt;Calculate:&lt;/div&gt;&lt;div style=&quot;font-size: 12px;&quot;&gt;- linear speed&lt;/div&gt;&lt;div style=&quot;font-size: 12px;&quot;&gt;- angular speed&lt;/div&gt;&lt;div style=&quot;font-size: 12px;&quot;&gt;- position&lt;/div&gt;&lt;div style=&quot;font-size: 12px;&quot;&gt;- rotation&lt;br style=&quot;font-size: 12px;&quot;&gt;&lt;/div&gt;" style="html=1;align=left;spacingLeft=2;endArrow=block;rounded=0;edgeStyle=orthogonalEdgeStyle;curved=0;rounded=0;labelBorderColor=none;fontSize=12;" parent="1" target="c-WefuL9a4vjOjl3ecWd-58" edge="1">
          <mxGeometry x="-0.0028" relative="1" as="geometry">
            <mxPoint x="900" y="710" as="sourcePoint" />
            <Array as="points">
              <mxPoint x="930" y="740" />
            </Array>
            <mxPoint as="offset" />
          </mxGeometry>
        </mxCell>
        <mxCell id="c-WefuL9a4vjOjl3ecWd-60" value="" style="html=1;points=[];perimeter=orthogonalPerimeter;outlineConnect=0;targetShapes=umlLifeline;portConstraint=eastwest;newEdgeStyle={&quot;edgeStyle&quot;:&quot;elbowEdgeStyle&quot;,&quot;elbow&quot;:&quot;vertical&quot;,&quot;curved&quot;:0,&quot;rounded&quot;:0};fontSize=12;" parent="1" vertex="1">
          <mxGeometry x="450" y="920" width="10" height="40" as="geometry" />
        </mxCell>
        <mxCell id="c-WefuL9a4vjOjl3ecWd-61" value="Calculate speed and acceleration&#xa;Update Vehicle Visual Effects" style="align=left;spacingLeft=2;endArrow=block;rounded=0;edgeStyle=orthogonalEdgeStyle;curved=0;rounded=0;labelBorderColor=none;fontSize=12;" parent="1" target="c-WefuL9a4vjOjl3ecWd-60" edge="1">
          <mxGeometry relative="1" as="geometry">
            <mxPoint x="455" y="900" as="sourcePoint" />
            <Array as="points">
              <mxPoint x="485" y="930" />
            </Array>
          </mxGeometry>
        </mxCell>
        <mxCell id="VZETpKhERo8CzhVwRjxm-92" value="Despawn" style="html=1;verticalAlign=bottom;endArrow=block;edgeStyle=elbowEdgeStyle;elbow=vertical;curved=0;rounded=0;fontSize=12;" parent="1" source="aM9ryv3xv72pqoxQDRHE-2" target="VZETpKhERo8CzhVwRjxm-55" edge="1">
          <mxGeometry width="80" relative="1" as="geometry">
            <mxPoint x="305" y="1000" as="sourcePoint" />
            <mxPoint x="495" y="1000" as="targetPoint" />
            <Array as="points">
              <mxPoint x="400" y="1000" />
            </Array>
          </mxGeometry>
        </mxCell>
        <mxCell id="VZETpKhERo8CzhVwRjxm-94" value="" style="shape=umlDestroy;whiteSpace=wrap;html=1;strokeWidth=3;targetShapes=umlLifeline;fontSize=12;" parent="1" vertex="1">
          <mxGeometry x="435" y="1010" width="30" height="30" as="geometry" />
        </mxCell>
        <mxCell id="c-WefuL9a4vjOjl3ecWd-64" value="The update loop shows interactions with one NPC Vehicle which is a symbolic representation of interactions with every NPC Vehicle individually" style="shape=note2;boundedLbl=1;whiteSpace=wrap;html=1;size=25;verticalAlign=top;align=center;fontSize=12;fillColor=#fff2cc;strokeColor=#d6b656;" parent="1" vertex="1">
          <mxGeometry x="220" y="290" width="120" height="160" as="geometry" />
        </mxCell>
      </root>
    </mxGraphModel>
  </diagram>
</mxfile>
